<svg width="41" height="40" viewBox="0 0 41 40" fill="none" xmlns="http://www.w3.org/2000/svg">
<path fill-rule="evenodd" clip-rule="evenodd" d="M37.9012 21.5385C37.9012 21.207 37.7695 20.889 37.535 20.6546C37.3006 20.4202 36.9827 20.2885 36.6512 20.2885H7.16866L15.0362 12.4235C15.1524 12.3073 15.2446 12.1693 15.3075 12.0174C15.3704 11.8656 15.4027 11.7028 15.4027 11.5385C15.4027 11.3741 15.3704 11.2114 15.3075 11.0595C15.2446 10.9077 15.1524 10.7697 15.0362 10.6535C14.9199 10.5373 14.782 10.4451 14.6301 10.3822C14.4783 10.3193 14.3155 10.2869 14.1512 10.2869C13.9868 10.2869 13.824 10.3193 13.6722 10.3822C13.5204 10.4451 13.3824 10.5373 13.2662 10.6535L3.26616 20.6535C3.14975 20.7696 3.05739 20.9075 2.99438 21.0594C2.93136 21.2113 2.89893 21.3741 2.89893 21.5385C2.89893 21.7029 2.93136 21.8657 2.99438 22.0176C3.05739 22.1694 3.14975 22.3074 3.26616 22.4235L13.2662 32.4235C13.3824 32.5397 13.5204 32.6319 13.6722 32.6948C13.824 32.7577 13.9868 32.7901 14.1512 32.7901C14.3155 32.7901 14.4783 32.7577 14.6301 32.6948C14.782 32.6319 14.9199 32.5397 15.0362 32.4235C15.1524 32.3073 15.2446 32.1693 15.3075 32.0174C15.3704 31.8656 15.4027 31.7028 15.4027 31.5385C15.4027 31.3741 15.3704 31.2114 15.3075 31.0595C15.2446 30.9077 15.1524 30.7697 15.0362 30.6535L7.16866 22.7885H36.6512C36.9827 22.7885 37.3006 22.6568 37.535 22.4224C37.7695 22.1879 37.9012 21.87 37.9012 21.5385Z" fill="white"/>
</svg>
